<svg xmlns = "http://www.w3.org/2000/svg" width = "1000" height = "1000">
<g>
<polygon points = "777.698, 602.680 659.359, 792.859 649.229, 796.340 449.898, 591.726 452.033, 571.355 477.852, 522.048 "
fill = "none" stroke = "black"/>
</g>
<g>
<polygon points = "853.380, 1000.000 659.359, 792.859 777.698, 602.680 1000.000, 522.393 1000.000, 1000.000 "
fill = "none" stroke = "black"/>
</g>
<g>
<polygon points = "246.275, 594.751 241.515, 1000.000 0.000, 1000.000 0.000, 424.717 "
fill = "none" stroke = "black"/>
</g>
<g>
<polygon points = "452.033, 571.355 449.898, 591.726 341.110, 936.434 275.815, 1000.000 241.515, 1000.000 246.275, 594.751 "
fill = "none" stroke = "black"/>
</g>
<g>
<polygon points = "853.380, 1000.000 707.478, 1000.000 532.253, 874.950 649.229, 796.340 659.359, 792.859 "
fill = "none" stroke = "black"/>
</g>
<g>
<polygon points = "433.151, 336.646 0.000, 312.379 0.000, 0.000 726.007, 0.000 "
fill = "none" stroke = "black"/>
</g>
<g>
<polygon points = "341.110, 936.434 449.898, 591.726 649.229, 796.340 532.253, 874.950 "
fill = "none" stroke = "black"/>
</g>
<g>
<polygon points = "532.253, 874.950 707.478, 1000.000 275.815, 1000.000 341.110, 936.434 "
fill = "none" stroke = "black"/>
</g>
<g>
<polygon points = "433.151, 336.646 477.852, 522.048 452.033, 571.355 246.275, 594.751 0.000, 424.717 0.000, 312.379 "
fill = "none" stroke = "black"/>
</g>
<g>
<polygon points = "777.698, 602.680 477.852, 522.048 433.151, 336.646 726.007, 0.000 1000.000, 0.000 1000.000, 522.393 "
fill = "none" stroke = "black"/>
</g>
</svg>
